<svg xmlns="http://www.w3.org/2000/svg" viewBox="0 0 16 16" width="16" height="16">
  <path
    fill="currentColor"
    fill-rule="evenodd"
    d="
      M2.5 2.5
      H12.3
      C13 2.5 13.5 3 13.5 3.7
      V4.3
      L15 5.2
      V10.8
      L13.5 11.7
      V12.3
      C13.5 13 13 13.5 12.3 13.5
      H2.5
      C1.7 13.5 1 12.8 1 12
      V4
      C1 3.2 1.7 2.5 2.5 2.5
      Z

      M2.4 3.8
      H11.7
      C12.05 3.8 12.35 4.08 12.35 4.45
      V4.85
      H2.4
      C2.18 4.85 2 4.67 2 4.45
      V4.2
      C2 3.98 2.18 3.8 2.4 3.8
      Z

      M1.95 9.7
      H13.2
      V10.95
      H1.95
      Z

      M3.1 5.55
      L3.55 8.35
      L4.1 6.55
      H4.85
      L5.4 8.35
      L5.85 5.55
      H6.8
      L5.95 9.95
      H5.1
      L4.48 7.95
      L3.85 9.95
      H3
      L2.15 5.55
      Z

      M7.55 5.55
      H9.35
      C10.45 5.55 11.05 6.07 11.05 7.05
      C11.05 8.02 10.45 8.55 9.35 8.55
      H8.55
      V9.95
      H7.55
      Z

      M8.55 6.4
      V7.7
      H9.2
      C9.72 7.7 10.02 7.47 10.02 7.05
      C10.02 6.62 9.72 6.4 9.2 6.4
      Z

      M11.85 5.55
      H14.55
      V6.4
      H12.85
      V7.25
      H14.35
      V8.1
      H12.85
      V9.95
      H11.85
      Z
    " />
</svg>
