<svg width="32" height="32" viewBox="0 0 32 32" fill="none" xmlns="http://www.w3.org/2000/svg">
  <path d="M16.711 2C18.442 7.57 23.815 9.379 23.815 15.242C23.815 21.343 20.098 26 14.325 26C9.73 26 6.185 22.374 6.185 17.491C6.185 13.355 8.434 10.313 11.574 7.954C11.763 10.443 12.44 12.196 13.607 13.214C15.244 11.485 16.173 8.934 16.173 6.115C16.173 4.797 16.34 3.42 16.711 2Z" fill="#D13438"/>
  <path d="M18.152 13.459C19.736 15.315 20.608 17.113 20.608 19.102C20.608 22.174 18.238 24.5 15.43 24.5C12.62 24.5 10.391 22.256 10.391 19.514C10.391 17.34 11.589 15.519 13.471 13.909C13.61 15.41 14.047 16.49 14.782 17.211C15.843 16.073 16.438 14.542 16.438 12.759C16.438 12.112 16.521 11.443 16.686 10.76C17.051 11.777 17.529 12.707 18.152 13.459Z" fill="#F7630C"/>
</svg>
